# xmcd CD database file
#
# Track frame offsets:
#	151
#	112019
#	161842
#	192084
#	218099
#	241147
#
# Disc length: 3945 seconds
#
# Revision: 0
# Processed by: cddbd v1.5.1PL0 Copyright (c) Steve Scherf et al.
# Submitted via: CDex 1.51
#
DISCID=4d0f6706
DTITLE=Elements of the 7th - Rhythm Process =2x(y)+3
DYEAR=2004
DGENRE=Jazz
TTITLE0=3
TTITLE1=The Move
TTITLE2=Astro Nugget
TTITLE3=Back to Black
TTITLE4=Blue 19
TTITLE5=The Move - Yard Version
EXTD=YEAR: 2004
EXTT0=
EXTT1=
EXTT2=
EXTT3=
EXTT4=
EXTT5=
PLAYORDER=
